PathFileType	4	(X/Y/Z)	Run_300 01
DataRate	CameraRate	NumFrames	NumMarkers	Units	OrigDataRate	OrigDataStartFrame	OrigNumFrames
120	120	4	42	mm	120	125	128
Frame#	Time	LASI			LPSI			RPSI			RTH1			RTH2			RTH3			LTH1			LTH2			LTH3			RTB1			RTB2			RTB3			LTB1			LTB2			RCAL			RTOE			RMT5			LCAL			LMT5			LACR			RACR			CLAV			C7			RUA1			RUA2			RUA3			RLEL			RMEL			LUA1			LUA2			LUA3			LLEL			LMEL			RFAsuperior			RFAradius			RFAulna			LFAsuperior			LFAradius			LFAulna			LTB3			LTOE			RASI			
		X1	Y1	Z1	X2	Y2	Z2	X3	Y3	Z3	X4	Y4	Z4	X5	Y5	Z5	X6	Y6	Z6	X7	Y7	Z7	X8	Y8	Z8	X9	Y9	Z9	X10	Y10	Z10	X11	Y11	Z11	X12	Y12	Z12	X13	Y13	Z13	X14	Y14	Z14	X15	Y15	Z15	X16	Y16	Z16	X17	Y17	Z17	X18	Y18	Z18	X19	Y19	Z19	X20	Y20	Z20	X21	Y21	Z21	X22	Y22	Z22	X23	Y23	Z23	X24	Y24	Z24	X25	Y25	Z25	X26	Y26	Z26	X27	Y27	Z27	X28	Y28	Z28	X29	Y29	Z29	X30	Y30	Z30	X31	Y31	Z31	X32	Y32	Z32	X33	Y33	Z33	X34	Y34	Z34	X35	Y35	Z35	X36	Y36	Z36	X37	Y37	Z37	X38	Y38	Z38	X39	Y39	Z39	X40	Y40	Z40	X41	Y41	Z41	X42	Y42	Z42	

122	1.175	771.138523	1038.766658	-486.248856	607.145311	1062.60739	-420.825226	605.5991739999999	1070.467319	-332.189364	689.088574	848.323068	-208.21324	710.918007	715.98646	-229.134608	595.550688	622.975362	-224.05072	766.9832249999999	890.598239	-542.164296	856.920871	798.421815	-532.625853	833.452481	647.894164	-506.769539	491.187171	435.091506	-275.055824	411.484707	443.160942	-223.907848	321.12987	367.943524	-286.135648	940.077307	430.339533	-431.611991	904.362485	319.024515	-478.840253	173.88893	422.395828	-299.412234	194.927077	204.476667	-306.813721	152.425575	231.68285	-222.94429	836.21362	97.057777	-396.220105	1029.335849	101.816561	-476.510629	700.7443029999999	1484.837814	-553.389043	769.283852	1479.565905	-191.459159	830.155504	1447.610674	-369.336549	704.291592	1535.201098	-367.53197	765.527727	1378.266253	-117.900979	790.871356	1312.709319	-115.17853	703.3919069999999	1300.575573	-51.060364	743.518356	1218.784172	-30.385534	664.858096	1191.127537	-70.420276	646.358034	1451.622822	-606.659639	570.075214	1413.728207	-588.836948	594.425292	1385.797689	-657.641716	525.44133	1306.837799	-707.343648	478.156592	1270.382325	-636.71897	804.141514	1218.993973	-89.783873	869.500366	1232.397042	-242.100487	866.155497	1166.986499	-230.957777	596.00082	1292.56192	-698.747875	731.187214	1250.263938	-594.6713119999999	722.350499	1195.953432	-628.304542	930.633189	241.510671	-403.398276	1049.042938	143.813536	-393.977745	766.622479	1035.396839	-249.846244	
123	1.183333	770.858613	1035.178164	-486.628477	606.76357	1056.148791	-419.276484	605.6665829999999	1064.630327	-330.716132	694.820946	843.143475	-207.973007	719.062481	711.780186	-228.429839	606.598561	615.486385	-222.567674	765.13913	885.796389	-543.269773	853.742244	791.589249	-533.114087	830.584957	642.202389	-506.700522	497.836043	433.05239	-274.008171	418.444898	446.804131	-223.477212	323.434656	377.93437	-285.303739	936.294397	424.333934	-431.751357	901.202715	313.308952	-479.914427	180.154093	442.099813	-301.557079	187.450001	222.732874	-301.594526	146.776388	255.169813	-220.230706	833.671241	92.880962	-398.027452	1025.95187	94.65595	-477.377762	702.771587	1479.317232	-555.826475	768.91889	1476.100483	-193.137369	830.205479	1442.785564	-370.361632	704.3507520000001	1530.922049	-370.13647	763.488913	1375.387011	-118.995294	788.293081	1309.72878	-115.365605	700.234059	1298.608145	-52.153944	739.473932	1216.123485	-30.991802	660.636381	1189.601846	-71.120124	649.186698	1445.439345	-610.073812	572.8864610000001	1406.323827	-592.516138	597.991222	1379.083811	-661.102651	530.383429	1299.708964	-711.641572	483.491444	1261.710144	-641.822216	800.098029	1214.711692	-90.46285	866.082329	1225.758293	-242.650386	861.583649	1160.554971	-231.08978	601.2099930000001	1286.452306	-702.967718	736.340112	1246.022815	-598.465857	728.80242	1191.946644	-632.62134	928.565443	235.239551	-405.027576	1046.811255	135.560073	-394.749623	767.51163	1031.690554	-249.112353	
124	1.191667	770.545019	1030.933112	-487.33989	606.319916	1049.000336	-417.547599	606.178638	1057.665095	-329.114299	700.241613	837.395028	-207.542524	727.179124	706.606666	-227.571598	617.90088	607.44975	-220.633669	763.4672	880.333798	-543.7148529999999	850.985852	785.126933	-532.068217	827.585234	635.925964	-506.766025	505.538376	430.762046	-272.648668	426.886309	449.916833	-222.738341	327.778483	387.615854	-284.495706	931.988193	417.518534	-431.993148	896.930865	306.713535	-480.519607	189.527619	460.731378	-303.760718	182.35005	240.685149	-295.887474	144.357337	278.520298	-217.476214	826.320773	91.77400900000001	-398.640235	1017.53709	84.867328	-478.005945	704.90797	1472.989355	-558.33862	768.000549	1471.883292	-194.676832	830.127569	1437.297284	-371.119409	704.218882	1525.882642	-372.772774	761.0212309999999	1371.814553	-120.056633	785.117967	1305.776083	-115.718005	696.724996	1295.984148	-53.197742	734.774647	1212.797294	-31.528406	655.745993	1187.541293	-71.863501	652.16623	1438.24386	-613.596468	575.798997	1397.864712	-596.573231	601.986306	1371.235149	-664.843055	535.901332	1291.408021	-716.317354	489.312232	1251.907169	-647.221801	795.536343	1209.61839	-90.75805699999999	862.576972	1218.051453	-242.605418	856.793861	1152.947107	-230.515738	606.891041	1279.127127	-707.307348	742.003703	1240.818211	-602.361668	735.703994	1186.932879	-636.830887	924.6644700000001	227.972614	-406.392907	1040.775013	122.44563	-395.128085	768.462704	1027.27949	-248.386965	
125	1.2	770.210933	1025.836805	-488.268791	605.750495	1041.167068	-415.848221	606.855805	1049.64562	-327.486739	705.264552	830.96212	-207.052102	735.369826	700.687849	-226.674331	629.450755	598.961012	-218.334127	762.179484	873.860422	-543.119142	848.980314	779.007145	-529.40133	824.443632	629.016656	-506.938144	514.200159	428.213608	-270.918708	436.637625	452.409005	-221.707871	334.135774	396.831293	-283.924092	927.3598480000001	409.749873	-432.11162	891.18519	299.040819	-479.84419	201.625814	477.812054	-305.947632	180.10004	258.225653	-290.690003	145.186229	301.110083	-214.847788	813.378748	93.05643499999999	-397.762634	1003.79177	74.338455	-478.217705	707.186516	1465.892959	-560.91515	766.583088	1466.965164	-196.088468	829.98438	1431.232785	-371.7044	703.925549	1520.053989	-375.418624	758.161154	1367.536164	-121.150072	781.374036	1300.883515	-116.316908	692.82182	1292.713268	-54.259212	729.43859	1208.877714	-31.991865	650.14417	1184.951443	-72.66143	655.294863	1430.068268	-617.154722	578.8646220000001	1388.444869	-600.993542	606.418912	1362.301459	-668.7678540000001	541.986949	1282.023291	-721.253997	495.483148	1241.090972	-652.821667	790.531784	1203.858906	-90.490104	858.931824	1209.252542	-242.025748	851.754956	1144.188059	-229.198306	613.133283	1270.795826	-711.958165	748.406928	1234.911946	-606.46179	743.116327	1180.957243	-640.945337	917.829648	219.919448	-406.435049	1029.758384	106.819769	-394.551934	769.3793930000001	1022.204874	-247.861399	
